<svg aria-hidden="true" style="position: absolute; width: 0; height: 0; overflow: hidden;" version="1.1" xmlns="http://www.w3.org/2000/svg" xmlns:xlink="http://www.w3.org/1999/xlink">
<defs>
<symbol id="icon-checkmark-outline" viewBox="0 0 20 20">
<path d="M2.93 17.070c-1.884-1.821-3.053-4.37-3.053-7.193 0-5.523 4.477-10 10-10 2.823 0 5.372 1.169 7.19 3.050l0.003 0.003c1.737 1.796 2.807 4.247 2.807 6.947 0 5.523-4.477 10-10 10-2.7 0-5.151-1.070-6.95-2.81l0.003 0.003zM15.66 15.66c1.449-1.449 2.344-3.45 2.344-5.66 0-4.421-3.584-8.004-8.004-8.004-2.21 0-4.211 0.896-5.66 2.344v0c-1.449 1.449-2.344 3.45-2.344 5.66 0 4.421 3.584 8.004 8.004 8.004 2.21 0 4.211-0.896 5.66-2.344v0zM6.7 9.29l2.3 2.31 4.3-4.3 1.4 1.42-5.7 5.68-3.7-3.7 1.4-1.42z"></path>
</symbol>
<symbol id="icon-education" viewBox="0 0 20 20">
<path d="M3.33 8l6.67 4 10-6-10-6-10 6h10v2h-6.67zM0 8v8l2-2.22v-4.58l-2-1.2zM10 20l-7-4.2v-6l7 4.2 7-4.2v6l-7 4.2z"></path>
</symbol>
<symbol id="icon-envelope" viewBox="0 0 20 20">
<path d="M18 2c1.105 0 2 0.895 2 2v0 12c0 1.105-0.895 2-2 2v0h-16c-1.105 0-2-0.895-2-2v0-12c0-1.1 0.9-2 2-2h16zM13.63 11.1l6.37 4.9v-2l-5.12-3.9 5.12-4.1v-2l-10 8-10-8v2l5.12 4.1-5.12 3.9v2l6.37-4.9 3.63 2.9 3.63-2.9z"></path>
</symbol>
<symbol id="icon-globe" viewBox="0 0 20 20">
<path d="M10 20c-5.523 0-10-4.477-10-10s4.477-10 10-10v0c5.523 0 10 4.477 10 10s-4.477 10-10 10v0zM12 17.75c1.602-0.424 2.964-1.287 3.993-2.451l0.007-0.009v-6.29c-1.105 0-2-0.895-2-2v0-3.93c-0.864-0.506-1.879-0.86-2.961-0.996l-0.039-0.004v0.93c0 1.105-0.895 2-2 2v0 1c0 1.105-0.895 2-2 2v0 2h3c1.105 0 2 0.895 2 2v0 5.75zM8 17.75v-2.75c-1.105 0-2-0.895-2-2v0-1h-0.5c-0.828 0-1.5-0.672-1.5-1.5v0-2.5h-1.75c-0.16 0.599-0.253 1.287-0.253 1.996 0 3.71 2.523 6.832 5.947 7.742l0.056 0.013z"></path>
</symbol>
<symbol id="icon-home" viewBox="0 0 20 20">
<path d="M8 20h-5v-10h-3l10-10 10 10h-3v10h-5v-6h-4v6z"></path>
</symbol>
<symbol id="icon-layers" viewBox="0 0 20 20">
<path d="M10 1l10 6-10 6-10-6 10-6zM16.67 11l3.33 2-10 6-10-6 3.33-2 6.67 4 6.67-4z"></path>
</symbol>
<symbol id="icon-light-bulb" viewBox="0 0 20 20">
<path d="M7 13.33c-2.384-1.15-4-3.549-4-6.325 0-3.866 3.134-7 7-7s7 3.134 7 7c0 2.776-1.616 5.174-3.958 6.306l-0.042 0.018v2.67h-6v-2.67zM7 17h6v1.5c0 0.83-0.67 1.5-1.5 1.5h-3c-0.828 0-1.5-0.672-1.5-1.5v0-1.5zM9 11.9v2.1h2v-2.1c2.299-0.481 4-2.492 4-4.899 0-2.761-2.239-5-5-5s-5 2.239-5 5c0 2.407 1.701 4.417 3.967 4.893l0.033 0.006z"></path>
</symbol>
<symbol id="icon-phone" viewBox="0 0 20 20">
<path d="M20 18.35v0.65c0 0.552-0.448 1-1 1v0h-2c-9.389 0-17-7.611-17-17v0-2c0-0.552 0.448-1 1-1v0h4c0.552 0 1 0.448 1 1v0 4c0 0.56-0.31 1.31-0.7 1.7l-2.14 2.14c1.52 3.6 4.4 6.48 8 8l2.12-2.12c0.4-0.4 1.15-0.71 1.7-0.71h4.020c0.548 0.006 0.99 0.451 0.99 1 0 0 0 0 0 0v0 3.35z"></path>
</symbol>
<symbol id="icon-thumbs-up" viewBox="0 0 20 20">
<path d="M11 0h1v3l3 7v8c0 1.105-0.895 2-2 2v0h-8c-1.1 0-2.31-0.84-2.7-1.88l-2.3-6.12v-2c0-1.105 0.895-2 2-2v0h7v-6c0-1.105 0.895-2 2-2v0zM17 10h3v10h-3v-10z"></path>
</symbol>
<symbol id="icon-time" viewBox="0 0 20 20">
<path d="M10 20c-5.523 0-10-4.477-10-10s4.477-10 10-10v0c5.523 0 10 4.477 10 10s-4.477 10-10 10v0zM10 18c4.418 0 8-3.582 8-8s-3.582-8-8-8v0c-4.418 0-8 3.582-8 8s3.582 8 8 8v0zM9 10.41v-6.41h2v5.59l3.95 3.95-1.41 1.41-4.54-4.54z"></path>
</symbol>
<symbol id="icon-travel-walk" viewBox="0 0 20 20">
<path d="M11 7l1.44 2.16c0.31 0.47 1.010 0.84 1.57 0.84h2.99v-2h-3l-1.44-2.16c-0.391-0.546-0.854-1.009-1.382-1.388l-0.018-0.012-1.32-0.88c-0.253-0.154-0.558-0.245-0.885-0.245-0.298 0-0.579 0.076-0.824 0.21l0.009-0.004-4.14 2.48v5h2v-4l2-1-3 14h2l2.35-7.65 1.65 1.65v6h2v-8l-2.7-2.7 0.7-2.3zM12 4c1.105 0 2-0.895 2-2s-0.895-2-2-2v0c-1.105 0-2 0.895-2 2s0.895 2 2 2v0z"></path>
</symbol>
<symbol id="icon-user" viewBox="0 0 20 20">
<path d="M5 5c0-2.761 2.239-5 5-5s5 2.239 5 5v0 2c0 2.761-2.239 5-5 5s-5-2.239-5-5v0-2zM0 16.68c2.86-1.685 6.301-2.68 9.974-2.68 0.009 0 0.018 0 0.027 0h-0.001c3.64 0 7.060 0.97 10 2.68v3.32h-20v-3.32z"></path>
</symbol>
</defs>
</svg>
